# xmcd
# Track frame offsets:
# 150
# 17505
# 32478
# 49847
#
# Disc length: 895 seconds
# Revision: 0
# Processed by: cddbd v1.5.2PL0 Copyright (c) Steve Scherf et al.
# Submitted via: VisiTrax 2.10.3.257 - For more info visit www.synapsa.com
#
DISCID=24037d04
DTITLE=Various Artist - Universal Music Country Sampler
DYEAR=2003
DGENRE=
TTITLE0=McEntire, Reba - Somebody
TTITLE1=Taylor, James and Alison Krauss - How's the World Treating you
TTITLE2=Otto, James - Day's of our Lives
TTITLE3=Nichols, Joe - Brokenheartsville
EXTD=
EXTT0=
EXTT1=
EXTT2=
EXTT3=
PLAYORDER=
